PathFileType	4	(X/Y/Z)
DataRate	CameraRate	NumFrames	NumMarkers	Units	OrigDataRate	OrigDataStartFrame	OrigNumFrames																																																																																																			
200	200	10	38	mm	200	151	200																																																																																																			
Frame#	Time	C7			Sternum			r_AMC1			r_AMC2			r_AMC3			l_AMC1			l_AMC2			l_AMC3			PX			T8			r_humerous			r_elbow_medial			r_elbow_lateral			r_forearm			r_wrist_radius			r_wrist_ulna			r_MCP_1			r_MCP_3			l_humerous			l_elbow_medial			l_elbow_lateral			l_forearm			l_wrist_radius			l_wrist_ulna			l_MCP_1			l_MCP_3			r_ASIS			r_PSIS			l_ASIS			l_PSIS			r_IC			l_IC			ts_r			ai_r			aa_r			ts_l			ai_l			aa_l		
		X1	Y1	Z1	X2	Y2	Z2	X3	Y3	Z3	X4	Y4	Z4	X5	Y5	Z5	X6	Y6	Z6	X7	Y7	Z7	X8	Y8	Z8	X9	Y9	Z9	X10	Y10	Z10	X11	Y11	Z11	X12	Y12	Z12	X13	Y13	Z13	X14	Y14	Z14	X15	Y15	Z15	X16	Y16	Z16	X17	Y17	Z17	X18	Y18	Z18	X19	Y19	Z19	X20	Y20	Z20	X21	Y21	Z21	X22	Y22	Z22	X23	Y23	Z23	X24	Y24	Z24	X25	Y25	Z25	X26	Y26	Z26	X27	Y27	Z27	X28	Y28	Z28	X29	Y29	Z29	X30	Y30	Z30	X31	Y31	Z31	X32	Y32	Z32	X33	Y33	Z33	X34	Y34	Z34	X35	Y35	Z35	X36	Y36	Z36	X37	Y37	Z37	X38	Y38	Z38
																																																																																																										
151	0.75	203.3045	1376.8828	-208.2168	330.053	1301.5952	-197.0745	201.5858	1322.0474	-41.5874	238.3861	1317.8396	-8.3308	261.8268	1350.0243	-29.2468	229.8759	1327.3793	-373.2122	270.9809	1318.1503	-403.3042	294.6182	1351.4867	-370.0375	382.3361	1111.9988	-191.7393	150.2629	1193.4611	-219.9346	297.1516	1125.0525	-5.6818	211.9211	991.9304	-24.4374	238.924	997.9989	35.0522	285.2483	839.3482	43.4007	329.431	776.9485	19.4942	281.8891	770.3073	38.3689	341.4077	677.2767	32.4091	299.9233	690.1377	44.1525	323.7039	1116.2443	-387.9972	223.607	999.8375	-405.7394	262.6283	993.6747	-445.6412	312.0181	841.5985	-439.5858	341.3818	770.4969	-406.39	305.162	766.5355	-434.0847	355.8695	693.5489	-415.9701	312.7012	691.4968	-439.811	365.0321	907.1844	-65.8148	177.3128	922.7543	-157.2282	374.416	894.9612	-328.1647	181.812	917.1107	-260.9681	277.2106	966.7971	-40.7828	285.1365	940.9627	-366.9912	161.374	1298.5152	-124.2866	152.5879	1197.9979	-116.9765	237.5173	1294.3497	-0.46662	177.1935	1307.1301	-292.9734	161.1849	1207.5056	-285.0958	256.8674	1290.4234	-404.9439
152	0.755	203.3357	1376.8752	-208.2231	330.0559	1301.5774	-197.052	201.587	1322.0604	-41.5802	238.4065	1317.8599	-8.3388	261.9766	1350.3264	-28.9467	229.8921	1327.386	-373.2142	270.9185	1318.2368	-403.2641	294.6518	1351.4825	-370.0173	382.3205	1112.0205	-191.6899	150.2651	1193.4662	-219.9326	297.1345	1125.1058	-5.683	211.9447	991.9281	-24.4134	238.2088	998.133	35.4983	285.3325	839.3786	43.398	329.4269	777.0248	19.4987	281.9205	770.3306	38.3593	341.427	677.2934	32.4214	299.903	690.2054	44.1655	323.6803	1116.2686	-387.9822	223.8664	1000.6639	-405.7057	262.6219	993.7517	-445.6001	312.1903	841.5979	-439.368	341.3379	770.5558	-406.3772	305.2212	766.5534	-434.0571	355.8714	693.5185	-415.9156	312.6891	691.5461	-439.7958	364.9798	907.1801	-65.7771	177.3304	922.7695	-157.2358	374.4295	894.9719	-328.1393	181.8521	917.1305	-260.9508	277.2029	966.8101	-40.7126	285.2057	940.9136	-366.9966	161.3993	1298.5115	-124.2608	152.5944	1197.9982	-116.9476	237.6312	1294.4523	-0.23752	177.2744	1307.1044	-293.0211	161.1674	1207.4478	-285.0799	256.973	1290.3305	-404.9499
153	0.76	203.3337	1376.8855	-208.2018	329.5485	1301.5304	-197.3158	201.6046	1322.0719	-41.5686	238.4193	1317.8635	-8.3349	261.9805	1350.3445	-28.9275	229.8949	1327.4044	-373.2069	270.9655	1318.214	-403.3011	294.6448	1351.5147	-370.0381	382.3399	1112.0204	-191.69	150.2721	1193.4618	-219.9094	297.1331	1125.1195	-5.6683	211.9406	991.9315	-24.4207	238.9967	998.0218	35.0461	285.3485	839.3514	43.4016	329.455	776.9957	19.4845	281.9547	770.2962	38.3635	341.4621	677.2896	32.4327	299.9376	690.2089	44.1887	323.6949	1116.3075	-387.9942	223.6415	999.8731	-405.7135	262.6217	993.751	-445.5864	312.1963	841.5748	-439.3458	341.3725	770.5439	-406.3737	305.2066	766.5463	-434.0771	355.9104	693.5646	-415.922	312.6801	691.5593	-439.7633	364.9165	907.176	-65.7276	177.3583	922.7505	-157.2084	374.4554	894.955	-328.1439	181.8427	917.1526	-260.9401	277.1992	966.8345	-40.7028	285.2407	940.7955	-366.986	161.3861	1298.5681	-124.2718	152.6477	1198.0198	-117.0026	237.6575	1294.5057	-0.23359	176.9848	1307.0005	-292.9731	160.9726	1207.3325	-285.0162	256.6634	1290.1803	-405.0301
154	0.765	203.3543	1376.8942	-208.1977	329.5753	1301.5291	-197.2739	201.6173	1322.0768	-41.5534	238.4638	1317.8483	-8.3145	262.0247	1350.3124	-28.9386	229.8979	1327.3946	-373.1979	270.9474	1318.2231	-403.2553	294.6132	1351.5813	-370.048	382.3597	1112.0094	-191.7154	150.2926	1193.4618	-219.9205	297.1589	1125.1227	-5.6579	211.981	991.9522	-24.4287	239.0051	998.0139	35.0603	285.3559	839.3696	43.4183	329.4092	777.0853	19.506	281.9913	770.3079	38.4034	341.4648	677.2833	32.4023	300.035	690.0652	44.2006	323.7126	1116.2732	-387.9754	223.6256	999.8709	-405.7282	262.6479	993.7722	-445.5789	312.2304	841.5204	-439.3717	341.4003	770.5336	-406.352	305.2332	766.5387	-434.0429	355.9051	693.5781	-415.9021	312.7382	691.5156	-439.7111	364.9511	907.211	-65.6837	177.3254	922.7726	-157.2398	374.477	894.9615	-328.1169	181.8676	917.1474	-260.9517	277.1717	966.8403	-40.7018	285.2808	940.9073	-366.9458	161.4283	1298.5251	-124.2546	152.673	1198.0291	-116.9971	237.6809	1294.4782	-0.21587	177.0798	1306.9976	-293.0231	161.0428	1207.3728	-285.0561	256.7408	1290.2008	-405.0566
155	0.77	203.3521	1376.8906	-208.1752	329.6007	1301.5493	-197.2767	201.6568	1322.09	-41.5289	238.4877	1317.8615	-8.3186	262.0425	1350.3162	-28.9247	229.9143	1327.4103	-373.2028	270.9826	1318.1978	-403.2666	294.7199	1351.4677	-370.0537	382.3388	1112.0277	-191.6912	150.271	1193.477	-219.9034	297.1766	1125.0887	-5.671	211.9864	991.9481	-24.4018	239.0224	998.0167	35.0792	285.3417	839.3984	43.4626	329.4709	777.0546	19.4745	281.9915	770.2946	38.4412	341.4615	677.3091	32.413	300.0401	690.0836	44.1891	323.7404	1116.2325	-388.0109	223.6398	999.8717	-405.721	262.6393	993.7654	-445.5712	312.1602	841.5031	-439.5209	341.4011	770.5645	-406.3311	305.124	766.489	-434.1049	355.9386	693.5908	-415.9273	312.7363	691.6077	-439.7667	364.9559	907.2269	-65.7472	177.3438	922.7668	-157.239	374.485	894.987	-328.0922	181.8972	917.1555	-260.9235	277.1488	966.8521	-40.6701	285.3151	940.9096	-366.9803	161.4463	1298.5398	-124.2365	152.6923	1198.0516	-116.9529	237.67	1294.4531	-0.18189	177.0398	1306.9941	-292.9822	160.9974	1207.3344	-285.0413	256.6737	1290.1757	-405.0239
156	0.775	203.3602	1376.8911	-208.1742	329.5987	1301.5338	-197.2613	201.6639	1322.1218	-41.5134	238.5007	1317.861	-8.2951	262.075	1350.3511	-28.9472	229.92	1327.4133	-373.2111	270.9814	1318.2163	-403.2617	294.6928	1351.5205	-370.0176	382.3793	1112.0823	-191.6841	150.3001	1193.4979	-219.9071	297.1734	1125.1481	-5.6374	211.9886	991.9593	-24.4033	239.0273	998.0241	35.0719	285.341	839.3544	43.4678	329.4723	777.0414	19.5085	281.9948	770.346	38.4159	341.4802	677.3298	32.4499	300.0487	690.103	44.2065	323.7322	1116.2549	-387.9812	223.9145	1000.6639	-405.6694	262.628	993.7721	-445.5632	312.1551	841.5128	-439.5732	341.4191	770.6019	-406.3191	305.2991	766.5937	-434.0186	355.9549	693.5995	-415.8538	312.7579	691.6113	-439.7378	364.9448	907.2169	-65.6811	177.3682	922.7615	-157.249	374.5339	894.9917	-328.0984	181.9039	917.1429	-260.9511	277.1682	966.8345	-40.6803	285.3316	940.9166	-366.9933	161.4337	1298.5932	-124.2499	152.7084	1198.0382	-116.995	237.6966	1294.4875	-0.19618	177.1272	1307.09	-292.9689	161.1192	1207.4569	-284.9731	256.8143	1290.2944	-404.9604
157	0.78	203.3744	1376.9023	-208.1584	329.6189	1301.5472	-197.2786	201.6845	1322.14	-41.5133	238.5202	1317.8899	-8.2875	262.1007	1350.2759	-28.9177	229.9422	1327.4159	-373.187	271.0174	1318.1963	-403.2602	294.7508	1351.4385	-369.9975	382.3919	1112.0516	-191.6895	150.3241	1193.4752	-219.8942	297.2361	1125.0538	-5.6365	212.0025	991.9425	-24.3918	239.054	998.0233	35.085	285.4128	839.3894	43.431	329.5148	776.9778	19.4887	281.9867	770.3162	38.4093	341.4928	677.3407	32.4522	300.0265	690.1561	44.2356	323.7345	1116.259	-387.9983	223.6428	999.8445	-405.6904	262.6292	993.7733	-445.5671	312.2494	841.563	-439.3062	341.4537	770.551	-406.3091	305.3122	766.5591	-434.0077	355.9749	693.596	-415.8632	312.8024	691.5645	-439.7156	364.8983	907.2131	-65.6368	177.3701	922.767	-157.2557	374.5451	894.9926	-328.0801	181.9105	917.1402	-260.9785	277.1775	966.8247	-40.7453	285.3413	940.9033	-366.9919	161.4279	1298.5693	-124.2269	152.686	1198.0526	-116.9743	237.6998	1294.4412	-0.19778	177.084	1306.9509	-292.988	161.023	1207.3247	-285.0291	256.6767	1290.1247	-404.9934
158	0.785	203.3841	1376.9124	-208.152	329.5948	1301.5535	-197.2684	201.7061	1322.1361	-41.4959	238.4501	1317.9719	-8.2539	262.1327	1350.2974	-28.9072	229.9432	1327.4204	-373.1796	271.0049	1318.1824	-403.2342	294.6932	1351.5106	-370.0273	382.3723	1112.0339	-191.6662	150.2977	1193.4921	-219.8784	297.2529	1125.0975	-5.6469	211.9957	991.9409	-24.3729	239.0644	998.0289	35.1083	285.411	839.3771	43.4515	329.4946	777.0172	19.4897	282.0025	770.3102	38.4613	341.4811	677.3182	32.4444	300.0373	690.1197	44.2177	323.7613	1116.2161	-388.0323	223.6585	999.8812	-405.6747	262.6442	993.7644	-445.5674	312.3026	841.5186	-439.2988	341.4376	770.6359	-406.3068	305.2737	766.6205	-433.9898	356.0148	693.5668	-415.7836	312.7758	691.6319	-439.6989	364.9478	907.2291	-65.6268	177.3898	922.7485	-157.2539	374.5572	894.9728	-328.0491	181.9526	917.1464	-260.9588	277.177	966.8027	-40.7184	285.3014	940.964	-366.9843	161.4508	1298.5573	-124.2262	152.7004	1198.0229	-116.979	237.7121	1294.4274	-0.17667	177.0387	1306.9838	-292.934	160.9945	1207.3371	-284.9837	256.6813	1290.1146	-404.9783
159	0.79	203.3878	1376.9126	-208.14	329.6357	1301.5487	-197.2984	201.7181	1322.1433	-41.4879	238.5335	1317.9355	-8.2336	261.9706	1350.025	-29.1974	229.9264	1327.4054	-373.162	269.263	1318.5649	-403.9726	294.681	1351.5353	-369.9647	382.374	1112.0687	-191.6743	150.2998	1193.4851	-219.8833	297.2636	1125.0955	-5.618	211.9876	991.9634	-24.3753	239.103	998.0366	35.1278	285.4364	839.3475	43.4504	329.4761	777.0317	19.5382	282.0194	770.3044	38.4391	341.4938	677.3307	32.4501	299.9994	690.1219	44.2426	323.772	1116.1687	-387.9914	223.6481	999.8561	-405.6887	262.6101	993.7676	-445.5519	312.2695	841.5489	-439.2963	341.4923	770.6113	-406.2991	305.2598	766.6262	-434.0071	356.0422	693.6201	-415.8152	312.8708	691.5276	-439.6833	364.9085	907.2442	-65.5814	177.3532	922.7553	-157.2533	374.543	894.9881	-328.04	181.9506	917.1381	-260.9588	277.1408	966.8523	-40.6597	285.3379	940.8597	-366.9931	161.465	1298.5729	-124.215	152.7084	1198.057	-117.0053	237.5849	1294.3384	-0.41774	177.03	1306.9606	-292.9495	160.9751	1207.3323	-284.9382	256.6521	1290.0939	-404.9543
160	0.795	203.3919	1376.9244	-208.1368	329.5953	1301.5376	-197.2936	201.7178	1322.1632	-41.4696	238.557	1317.885	-8.2523	262.1685	1350.2544	-28.9232	229.929	1327.4058	-373.1551	269.2768	1318.5724	-403.9827	294.6699	1351.5251	-369.9928	382.3919	1112.0945	-191.6721	150.3171	1193.4969	-219.8599	297.2854	1125.0363	-5.6592	212.0153	991.9606	-24.3501	239.0954	998.0372	35.1274	285.3861	839.4186	43.4812	329.4928	776.9719	19.5508	281.9521	770.397	38.4749	341.4741	677.3214	32.4654	300.0315	690.1343	44.2783	323.7093	1116.2827	-387.9927	223.546	999.506	-405.6928	262.6196	993.7654	-445.5419	312.2807	841.5744	-439.2957	341.5187	770.6071	-406.2727	305.3284	766.6106	-433.9408	356.0717	693.6075	-415.7973	312.7911	691.6584	-439.6785	364.9184	907.2066	-65.5924	177.3925	922.7416	-157.2439	374.5892	895.0289	-328.0251	181.9426	917.134	-260.968	277.1388	966.8308	-40.6438	285.3812	940.8971	-366.9514	161.4516	1298.5724	-124.2151	152.6818	1198.0433	-116.9809	237.7675	1294.3843	-0.14306	177.0272	1306.9401	-292.9286	160.9809	1207.2845	-284.9234	256.6639	1290.0981	-404.9718
